<mxfile host="app.diagrams.net" modified="2023-08-04T00:10:55.385Z" agent="5.0 (Windows NT 10.0; Win64; x64) AppleWebKit/537.36 (KHTML, like Gecko) Chrome/115.0.0.0 Safari/537.36" version="20.6.0" etag="cYhcqQ1C6-a2TRK5O0To" type="github">
  <diagram id="LRJKB3ebcwUge9jsi5Th" name="Página-1">
    <mxGraphModel dx="3879" dy="967" grid="1" gridSize="10" guides="1" tooltips="1" connect="1" arrows="1" fold="1" page="1" pageScale="1" pageWidth="827" pageHeight="1169" math="0" shadow="0">
      <root>
        <mxCell id="0" />
        <mxCell id="1" parent="0" />
        <mxCell id="y9BI83Vpjif7fP8tPJEx-1" value="" style="shape=note;whiteSpace=wrap;html=1;backgroundOutline=1;darkOpacity=0.05;fillColor=#FFB570;" vertex="1" parent="1">
          <mxGeometry x="-1400" y="160" width="120" height="120" as="geometry" />
        </mxCell>
        <mxCell id="y9BI83Vpjif7fP8tPJEx-2" value="TRUSTHUB-DADOS&lt;br&gt;-USUARIO-CLIENTE" style="text;html=1;resizable=0;autosize=1;align=center;verticalAlign=middle;points=[];fillColor=none;strokeColor=none;rounded=0;" vertex="1" parent="1">
          <mxGeometry x="-1410" y="200" width="140" height="40" as="geometry" />
        </mxCell>
        <mxCell id="y9BI83Vpjif7fP8tPJEx-12" style="edgeStyle=orthogonalEdgeStyle;rounded=0;orthogonalLoop=1;jettySize=auto;html=1;entryX=0.5;entryY=0;entryDx=0;entryDy=0;fontSize=11;" edge="1" parent="1" source="y9BI83Vpjif7fP8tPJEx-6" target="y9BI83Vpjif7fP8tPJEx-3">
          <mxGeometry relative="1" as="geometry" />
        </mxCell>
        <mxCell id="y9BI83Vpjif7fP8tPJEx-6" value="" style="rounded=0;whiteSpace=wrap;html=1;fillColor=#FFFFFF;" vertex="1" parent="1">
          <mxGeometry x="-905" y="166" width="240" height="80" as="geometry" />
        </mxCell>
        <mxCell id="y9BI83Vpjif7fP8tPJEx-7" value="&lt;div style=&quot;&quot;&gt;&lt;span style=&quot;background-color: initial;&quot;&gt;&lt;font style=&quot;font-size: 14px;&quot;&gt;Back &lt;b&gt;Java&lt;/b&gt;&lt;/font&gt;&lt;/span&gt;&lt;/div&gt;&lt;div style=&quot;&quot;&gt;&lt;span style=&quot;background-color: initial;&quot;&gt;&lt;font size=&quot;3&quot;&gt;Projeto: trusthub-autenticacao&lt;/font&gt;&lt;/span&gt;&lt;/div&gt;&lt;div style=&quot;&quot;&gt;&lt;span style=&quot;background-color: initial;&quot;&gt;&lt;font size=&quot;3&quot;&gt;Classe: Autenticacao&lt;/font&gt;&lt;/span&gt;&lt;/div&gt;" style="text;html=1;strokeColor=none;fillColor=none;align=left;verticalAlign=middle;whiteSpace=wrap;rounded=0;" vertex="1" parent="1">
          <mxGeometry x="-905" y="176" width="218" height="60" as="geometry" />
        </mxCell>
        <mxCell id="y9BI83Vpjif7fP8tPJEx-8" value="" style="shape=cylinder3;whiteSpace=wrap;html=1;boundedLbl=1;backgroundOutline=1;size=15;fillColor=#FFFFFF;" vertex="1" parent="1">
          <mxGeometry x="-515" y="446" width="80" height="80" as="geometry" />
        </mxCell>
        <mxCell id="y9BI83Vpjif7fP8tPJEx-9" value="&lt;font style=&quot;font-size: 11px;&quot;&gt;Banco de dados&lt;br&gt;Trusthub&lt;/font&gt;" style="text;html=1;strokeColor=none;fillColor=none;align=center;verticalAlign=middle;whiteSpace=wrap;rounded=0;" vertex="1" parent="1">
          <mxGeometry x="-510" y="476" width="70" height="50" as="geometry" />
        </mxCell>
        <mxCell id="y9BI83Vpjif7fP8tPJEx-11" value="" style="group" vertex="1" connectable="0" parent="1">
          <mxGeometry x="-550" y="280" width="240" height="80" as="geometry" />
        </mxCell>
        <mxCell id="y9BI83Vpjif7fP8tPJEx-3" value="" style="rounded=0;whiteSpace=wrap;html=1;fillColor=#FFFFFF;" vertex="1" parent="y9BI83Vpjif7fP8tPJEx-11">
          <mxGeometry width="240" height="80" as="geometry" />
        </mxCell>
        <mxCell id="y9BI83Vpjif7fP8tPJEx-4" value="&lt;div style=&quot;&quot;&gt;&lt;span style=&quot;background-color: initial;&quot;&gt;&lt;font style=&quot;font-size: 14px;&quot;&gt;Back &lt;b&gt;Java&lt;/b&gt;&lt;/font&gt;&lt;/span&gt;&lt;/div&gt;&lt;div style=&quot;&quot;&gt;&lt;span style=&quot;background-color: initial;&quot;&gt;&lt;font size=&quot;3&quot;&gt;Projeto: trusthub-dados-usuario-cliente&lt;/font&gt;&lt;/span&gt;&lt;/div&gt;&lt;div style=&quot;&quot;&gt;&lt;span style=&quot;background-color: initial;&quot;&gt;&lt;font size=&quot;3&quot;&gt;Classe: DadosUsuario&lt;/font&gt;&lt;/span&gt;&lt;/div&gt;" style="text;html=1;strokeColor=none;fillColor=none;align=left;verticalAlign=middle;whiteSpace=wrap;rounded=0;" vertex="1" parent="y9BI83Vpjif7fP8tPJEx-11">
          <mxGeometry y="10" width="230" height="60" as="geometry" />
        </mxCell>
        <mxCell id="y9BI83Vpjif7fP8tPJEx-13" style="edgeStyle=orthogonalEdgeStyle;rounded=0;orthogonalLoop=1;jettySize=auto;html=1;exitX=0.5;exitY=1;exitDx=0;exitDy=0;fontSize=11;" edge="1" parent="1" source="y9BI83Vpjif7fP8tPJEx-3" target="y9BI83Vpjif7fP8tPJEx-8">
          <mxGeometry relative="1" as="geometry" />
        </mxCell>
        <mxCell id="y9BI83Vpjif7fP8tPJEx-14" style="edgeStyle=orthogonalEdgeStyle;rounded=0;orthogonalLoop=1;jettySize=auto;html=1;fontSize=11;entryX=0.5;entryY=1;entryDx=0;entryDy=0;" edge="1" parent="1" source="y9BI83Vpjif7fP8tPJEx-4" target="y9BI83Vpjif7fP8tPJEx-6">
          <mxGeometry relative="1" as="geometry">
            <mxPoint x="-785" y="256" as="targetPoint" />
          </mxGeometry>
        </mxCell>
        <mxCell id="y9BI83Vpjif7fP8tPJEx-16" value="" style="shape=note;whiteSpace=wrap;html=1;backgroundOutline=1;darkOpacity=0.05;fontSize=11;fillColor=#FFFFFF;" vertex="1" parent="1">
          <mxGeometry x="-895" y="336" width="70" height="70" as="geometry" />
        </mxCell>
        <mxCell id="y9BI83Vpjif7fP8tPJEx-15" value="Valida Token" style="text;html=1;strokeColor=none;fillColor=none;align=center;verticalAlign=middle;whiteSpace=wrap;rounded=0;fontSize=11;" vertex="1" parent="1">
          <mxGeometry x="-895" y="366" width="60" height="30" as="geometry" />
        </mxCell>
        <mxCell id="y9BI83Vpjif7fP8tPJEx-19" value="" style="endArrow=none;html=1;rounded=0;fontSize=14;fillColor=#999999;entryX=0;entryY=0.5;entryDx=0;entryDy=0;" edge="1" parent="1" target="y9BI83Vpjif7fP8tPJEx-6">
          <mxGeometry width="50" height="50" relative="1" as="geometry">
            <mxPoint x="-1095" y="206" as="sourcePoint" />
            <mxPoint x="-1025" y="181" as="targetPoint" />
          </mxGeometry>
        </mxCell>
        <mxCell id="y9BI83Vpjif7fP8tPJEx-21" value="" style="shape=note;whiteSpace=wrap;html=1;backgroundOutline=1;darkOpacity=0.05;fontSize=11;fillColor=#FFFFFF;" vertex="1" parent="1">
          <mxGeometry x="-595" y="76" width="70" height="70" as="geometry" />
        </mxCell>
        <mxCell id="y9BI83Vpjif7fP8tPJEx-22" value="Busca usuário" style="text;html=1;strokeColor=none;fillColor=none;align=center;verticalAlign=middle;whiteSpace=wrap;rounded=0;fontSize=11;" vertex="1" parent="1">
          <mxGeometry x="-590" y="106" width="60" height="30" as="geometry" />
        </mxCell>
        <mxCell id="y9BI83Vpjif7fP8tPJEx-25" value="" style="endArrow=none;dashed=1;html=1;rounded=0;fontSize=14;fillColor=#999999;" edge="1" parent="1">
          <mxGeometry width="50" height="50" relative="1" as="geometry">
            <mxPoint x="-865.5" y="336" as="sourcePoint" />
            <mxPoint x="-865.5" y="246" as="targetPoint" />
          </mxGeometry>
        </mxCell>
        <mxCell id="y9BI83Vpjif7fP8tPJEx-26" value="" style="endArrow=none;dashed=1;html=1;rounded=0;fontSize=14;fillColor=#999999;" edge="1" parent="1">
          <mxGeometry width="50" height="50" relative="1" as="geometry">
            <mxPoint x="-560" y="206" as="sourcePoint" />
            <mxPoint x="-560.5" y="146" as="targetPoint" />
          </mxGeometry>
        </mxCell>
        <mxCell id="y9BI83Vpjif7fP8tPJEx-27" value="" style="shape=note;whiteSpace=wrap;html=1;backgroundOutline=1;darkOpacity=0.05;fillColor=#FFB570;" vertex="1" parent="1">
          <mxGeometry x="-1400" y="321" width="120" height="120" as="geometry" />
        </mxCell>
        <mxCell id="y9BI83Vpjif7fP8tPJEx-28" value="TRUSTHUB-&lt;br&gt;AUTENTICACAO" style="text;html=1;resizable=0;autosize=1;align=center;verticalAlign=middle;points=[];fillColor=none;strokeColor=none;rounded=0;" vertex="1" parent="1">
          <mxGeometry x="-1400" y="371" width="120" height="40" as="geometry" />
        </mxCell>
        <mxCell id="y9BI83Vpjif7fP8tPJEx-30" value="" style="shape=link;html=1;rounded=0;fontSize=14;fillColor=#999999;" edge="1" parent="1">
          <mxGeometry width="100" relative="1" as="geometry">
            <mxPoint x="-1650" y="600" as="sourcePoint" />
            <mxPoint x="-10" y="600" as="targetPoint" />
          </mxGeometry>
        </mxCell>
        <mxCell id="y9BI83Vpjif7fP8tPJEx-31" value="&lt;h1&gt;&lt;font style=&quot;font-size: 18px;&quot;&gt;Fluxo de validação de usuário para autenticação&lt;/font&gt;&lt;/h1&gt;" style="text;html=1;strokeColor=none;fillColor=none;spacing=5;spacingTop=-20;whiteSpace=wrap;overflow=hidden;rounded=0;fontSize=14;" vertex="1" parent="1">
          <mxGeometry x="-450" y="26" width="430" height="50" as="geometry" />
        </mxCell>
        <mxCell id="y9BI83Vpjif7fP8tPJEx-32" value="" style="shape=note;whiteSpace=wrap;html=1;backgroundOutline=1;darkOpacity=0.05;fontSize=11;fillColor=#FFFFFF;" vertex="1" parent="1">
          <mxGeometry x="-710" y="396" width="70" height="70" as="geometry" />
        </mxCell>
        <mxCell id="y9BI83Vpjif7fP8tPJEx-34" value="" style="endArrow=none;dashed=1;html=1;rounded=0;fontSize=14;fillColor=#999999;" edge="1" parent="1">
          <mxGeometry width="50" height="50" relative="1" as="geometry">
            <mxPoint x="-680" y="396" as="sourcePoint" />
            <mxPoint x="-680" y="320" as="targetPoint" />
          </mxGeometry>
        </mxCell>
        <mxCell id="y9BI83Vpjif7fP8tPJEx-35" value="" style="rounded=0;whiteSpace=wrap;html=1;fillColor=#FFFFFF;" vertex="1" parent="1">
          <mxGeometry x="-913" y="986" width="240" height="80" as="geometry" />
        </mxCell>
        <mxCell id="y9BI83Vpjif7fP8tPJEx-36" value="&lt;div style=&quot;&quot;&gt;&lt;span style=&quot;background-color: initial;&quot;&gt;&lt;font style=&quot;font-size: 14px;&quot;&gt;Back &lt;b&gt;Java&lt;/b&gt;&lt;/font&gt;&lt;/span&gt;&lt;/div&gt;&lt;div style=&quot;&quot;&gt;&lt;span style=&quot;background-color: initial;&quot;&gt;&lt;font size=&quot;3&quot;&gt;Projeto: trusthub-autenticacao&lt;/font&gt;&lt;/span&gt;&lt;/div&gt;&lt;div style=&quot;&quot;&gt;&lt;span style=&quot;background-color: initial;&quot;&gt;&lt;font size=&quot;3&quot;&gt;Classe: Autenticacao&lt;/font&gt;&lt;/span&gt;&lt;/div&gt;" style="text;html=1;strokeColor=none;fillColor=none;align=left;verticalAlign=middle;whiteSpace=wrap;rounded=0;" vertex="1" parent="1">
          <mxGeometry x="-913" y="996" width="218" height="60" as="geometry" />
        </mxCell>
        <mxCell id="y9BI83Vpjif7fP8tPJEx-38" value="" style="endArrow=none;html=1;rounded=0;fontSize=14;fillColor=#999999;entryX=0;entryY=0.5;entryDx=0;entryDy=0;" edge="1" parent="1" target="y9BI83Vpjif7fP8tPJEx-35">
          <mxGeometry width="50" height="50" relative="1" as="geometry">
            <mxPoint x="-1078" y="1025.17" as="sourcePoint" />
            <mxPoint x="-888" y="1025.17" as="targetPoint" />
          </mxGeometry>
        </mxCell>
        <mxCell id="y9BI83Vpjif7fP8tPJEx-39" value="" style="endArrow=none;dashed=1;html=1;rounded=0;fontSize=14;fillColor=#999999;" edge="1" parent="1">
          <mxGeometry width="50" height="50" relative="1" as="geometry">
            <mxPoint x="-998" y="1116" as="sourcePoint" />
            <mxPoint x="-998" y="1026" as="targetPoint" />
          </mxGeometry>
        </mxCell>
        <mxCell id="y9BI83Vpjif7fP8tPJEx-40" value="" style="strokeWidth=2;html=1;shape=mxgraph.flowchart.start_1;whiteSpace=wrap;fontSize=18;fillColor=#FFFFFF;" vertex="1" parent="1">
          <mxGeometry x="-1173" y="996" width="100" height="60" as="geometry" />
        </mxCell>
        <mxCell id="y9BI83Vpjif7fP8tPJEx-41" value="&lt;font style=&quot;font-size: 14px;&quot;&gt;Requisição&lt;/font&gt;" style="text;html=1;strokeColor=none;fillColor=none;align=center;verticalAlign=middle;whiteSpace=wrap;rounded=0;fontSize=18;" vertex="1" parent="1">
          <mxGeometry x="-1173" y="1011" width="100" height="30" as="geometry" />
        </mxCell>
        <mxCell id="y9BI83Vpjif7fP8tPJEx-45" value="" style="shape=note;whiteSpace=wrap;html=1;backgroundOutline=1;darkOpacity=0.05;fontSize=11;fillColor=#FFFFFF;" vertex="1" parent="1">
          <mxGeometry x="-1028" y="1116" width="70" height="70" as="geometry" />
        </mxCell>
        <mxCell id="y9BI83Vpjif7fP8tPJEx-46" value="Gateway" style="text;html=1;strokeColor=none;fillColor=none;align=center;verticalAlign=middle;whiteSpace=wrap;rounded=0;fontSize=11;" vertex="1" parent="1">
          <mxGeometry x="-1028" y="1146" width="60" height="30" as="geometry" />
        </mxCell>
        <mxCell id="y9BI83Vpjif7fP8tPJEx-49" value="" style="endArrow=none;dashed=1;html=1;rounded=0;fontSize=18;fillColor=#999999;exitX=0;exitY=0;exitDx=70;exitDy=30;exitPerimeter=0;" edge="1" parent="1" source="y9BI83Vpjif7fP8tPJEx-45">
          <mxGeometry width="50" height="50" relative="1" as="geometry">
            <mxPoint x="-903" y="1116" as="sourcePoint" />
            <mxPoint x="-858" y="1066" as="targetPoint" />
            <Array as="points">
              <mxPoint x="-858" y="1146" />
            </Array>
          </mxGeometry>
        </mxCell>
        <mxCell id="y9BI83Vpjif7fP8tPJEx-50" value="" style="shape=note;whiteSpace=wrap;html=1;backgroundOutline=1;darkOpacity=0.05;fontSize=11;fillColor=#FFFFFF;" vertex="1" parent="1">
          <mxGeometry x="-808" y="1206" width="70" height="70" as="geometry" />
        </mxCell>
        <mxCell id="y9BI83Vpjif7fP8tPJEx-51" value="Valida Token" style="text;html=1;strokeColor=none;fillColor=none;align=center;verticalAlign=middle;whiteSpace=wrap;rounded=0;fontSize=11;" vertex="1" parent="1">
          <mxGeometry x="-808" y="1226" width="60" height="44" as="geometry" />
        </mxCell>
        <mxCell id="y9BI83Vpjif7fP8tPJEx-52" value="" style="endArrow=none;dashed=1;html=1;rounded=0;fontSize=14;fillColor=#999999;exitX=0.4;exitY=-0.057;exitDx=0;exitDy=0;exitPerimeter=0;" edge="1" parent="1" source="y9BI83Vpjif7fP8tPJEx-50">
          <mxGeometry width="50" height="50" relative="1" as="geometry">
            <mxPoint x="-778.5" y="1156" as="sourcePoint" />
            <mxPoint x="-778.5" y="1066" as="targetPoint" />
          </mxGeometry>
        </mxCell>
        <mxCell id="y9BI83Vpjif7fP8tPJEx-53" value="" style="group" vertex="1" connectable="0" parent="1">
          <mxGeometry x="-498" y="986" width="240" height="80" as="geometry" />
        </mxCell>
        <mxCell id="y9BI83Vpjif7fP8tPJEx-54" value="" style="rounded=0;whiteSpace=wrap;html=1;fillColor=#FFFFFF;" vertex="1" parent="y9BI83Vpjif7fP8tPJEx-53">
          <mxGeometry width="240" height="80" as="geometry" />
        </mxCell>
        <mxCell id="y9BI83Vpjif7fP8tPJEx-55" value="&lt;div style=&quot;&quot;&gt;&lt;span style=&quot;background-color: initial;&quot;&gt;&lt;font style=&quot;font-size: 14px;&quot;&gt;Back &lt;b&gt;Java&lt;/b&gt;&lt;/font&gt;&lt;/span&gt;&lt;/div&gt;&lt;div style=&quot;&quot;&gt;&lt;span style=&quot;background-color: initial;&quot;&gt;&lt;font size=&quot;3&quot;&gt;Projeto: trusthub-dados-usuario-cliente&lt;/font&gt;&lt;/span&gt;&lt;/div&gt;&lt;div style=&quot;&quot;&gt;&lt;span style=&quot;background-color: initial;&quot;&gt;&lt;font size=&quot;3&quot;&gt;Classe: DadosUsuario&lt;/font&gt;&lt;/span&gt;&lt;/div&gt;" style="text;html=1;strokeColor=none;fillColor=none;align=left;verticalAlign=middle;whiteSpace=wrap;rounded=0;" vertex="1" parent="y9BI83Vpjif7fP8tPJEx-53">
          <mxGeometry y="10" width="218" height="60" as="geometry" />
        </mxCell>
        <mxCell id="y9BI83Vpjif7fP8tPJEx-56" value="" style="endArrow=classic;html=1;rounded=0;fontSize=18;fillColor=#999999;entryX=0;entryY=0.5;entryDx=0;entryDy=0;" edge="1" parent="1">
          <mxGeometry width="50" height="50" relative="1" as="geometry">
            <mxPoint x="-672" y="1026" as="sourcePoint" />
            <mxPoint x="-502" y="1026" as="targetPoint" />
            <Array as="points">
              <mxPoint x="-552" y="1026" />
            </Array>
          </mxGeometry>
        </mxCell>
        <mxCell id="y9BI83Vpjif7fP8tPJEx-58" value="" style="shape=note;whiteSpace=wrap;html=1;backgroundOutline=1;darkOpacity=0.05;fontSize=11;fillColor=#FFFFFF;" vertex="1" parent="1">
          <mxGeometry x="-628" y="886" width="70" height="70" as="geometry" />
        </mxCell>
        <mxCell id="y9BI83Vpjif7fP8tPJEx-59" value="Busca usuário" style="text;html=1;strokeColor=none;fillColor=none;align=center;verticalAlign=middle;whiteSpace=wrap;rounded=0;fontSize=11;" vertex="1" parent="1">
          <mxGeometry x="-623" y="916" width="60" height="30" as="geometry" />
        </mxCell>
        <mxCell id="y9BI83Vpjif7fP8tPJEx-62" value="" style="endArrow=none;dashed=1;html=1;rounded=0;fontSize=14;fillColor=#999999;" edge="1" parent="1">
          <mxGeometry width="50" height="50" relative="1" as="geometry">
            <mxPoint x="-593.5" y="1026" as="sourcePoint" />
            <mxPoint x="-593" y="956" as="targetPoint" />
          </mxGeometry>
        </mxCell>
        <mxCell id="y9BI83Vpjif7fP8tPJEx-64" value="" style="endArrow=none;dashed=1;html=1;rounded=0;fontSize=14;fillColor=#999999;" edge="1" parent="1">
          <mxGeometry width="50" height="50" relative="1" as="geometry">
            <mxPoint x="-620" y="1116" as="sourcePoint" />
            <mxPoint x="-620" y="1026" as="targetPoint" />
          </mxGeometry>
        </mxCell>
        <mxCell id="y9BI83Vpjif7fP8tPJEx-65" value="" style="shape=note;whiteSpace=wrap;html=1;backgroundOutline=1;darkOpacity=0.05;fontSize=11;fillColor=#FFFFFF;" vertex="1" parent="1">
          <mxGeometry x="-653" y="1116" width="70" height="70" as="geometry" />
        </mxCell>
        <mxCell id="y9BI83Vpjif7fP8tPJEx-66" value="Gateway" style="text;html=1;strokeColor=none;fillColor=none;align=center;verticalAlign=middle;whiteSpace=wrap;rounded=0;fontSize=11;" vertex="1" parent="1">
          <mxGeometry x="-653" y="1136" width="60" height="44" as="geometry" />
        </mxCell>
        <mxCell id="y9BI83Vpjif7fP8tPJEx-67" value="" style="endArrow=none;dashed=1;html=1;rounded=0;fontSize=18;fillColor=#999999;entryX=0.5;entryY=1;entryDx=0;entryDy=0;entryPerimeter=0;" edge="1" parent="1" target="y9BI83Vpjif7fP8tPJEx-65">
          <mxGeometry width="50" height="50" relative="1" as="geometry">
            <mxPoint x="-738" y="1246" as="sourcePoint" />
            <mxPoint x="-643" y="1166" as="targetPoint" />
            <Array as="points">
              <mxPoint x="-618" y="1246" />
            </Array>
          </mxGeometry>
        </mxCell>
        <mxCell id="y9BI83Vpjif7fP8tPJEx-68" value="" style="shape=cylinder3;whiteSpace=wrap;html=1;boundedLbl=1;backgroundOutline=1;size=15;fillColor=#FFFFFF;" vertex="1" parent="1">
          <mxGeometry x="-428" y="1196" width="80" height="80" as="geometry" />
        </mxCell>
        <mxCell id="y9BI83Vpjif7fP8tPJEx-69" value="&lt;font style=&quot;font-size: 11px;&quot;&gt;Banco de dados&lt;br&gt;Trusthub&lt;/font&gt;" style="text;html=1;strokeColor=none;fillColor=none;align=center;verticalAlign=middle;whiteSpace=wrap;rounded=0;" vertex="1" parent="1">
          <mxGeometry x="-423" y="1226" width="70" height="50" as="geometry" />
        </mxCell>
        <mxCell id="y9BI83Vpjif7fP8tPJEx-71" style="edgeStyle=orthogonalEdgeStyle;rounded=0;orthogonalLoop=1;jettySize=auto;html=1;entryX=0.5;entryY=0;entryDx=0;entryDy=0;entryPerimeter=0;fontSize=18;fillColor=#999999;" edge="1" parent="1" target="y9BI83Vpjif7fP8tPJEx-68">
          <mxGeometry relative="1" as="geometry">
            <mxPoint x="-388" y="1066" as="sourcePoint" />
          </mxGeometry>
        </mxCell>
        <mxCell id="y9BI83Vpjif7fP8tPJEx-73" value="" style="endArrow=classic;html=1;rounded=0;fontSize=18;fillColor=#999999;exitX=0.671;exitY=0.016;exitDx=0;exitDy=0;entryX=0.5;entryY=0;entryDx=0;entryDy=0;exitPerimeter=0;" edge="1" parent="1" source="y9BI83Vpjif7fP8tPJEx-54" target="y9BI83Vpjif7fP8tPJEx-35">
          <mxGeometry width="50" height="50" relative="1" as="geometry">
            <mxPoint x="-379" y="976" as="sourcePoint" />
            <mxPoint x="-1018" y="866" as="targetPoint" />
            <Array as="points">
              <mxPoint x="-337" y="866" />
              <mxPoint x="-478" y="866" />
              <mxPoint x="-793" y="866" />
            </Array>
          </mxGeometry>
        </mxCell>
        <mxCell id="y9BI83Vpjif7fP8tPJEx-75" value="" style="shape=note;whiteSpace=wrap;html=1;backgroundOutline=1;darkOpacity=0.05;fontSize=11;fillColor=#FFFFFF;" vertex="1" parent="1">
          <mxGeometry x="-530" y="725" width="70" height="70" as="geometry" />
        </mxCell>
        <mxCell id="y9BI83Vpjif7fP8tPJEx-77" value="" style="endArrow=none;dashed=1;html=1;rounded=0;fontSize=14;fillColor=#999999;" edge="1" parent="1">
          <mxGeometry width="50" height="50" relative="1" as="geometry">
            <mxPoint x="-498" y="865" as="sourcePoint" />
            <mxPoint x="-498.09000000000003" y="795" as="targetPoint" />
          </mxGeometry>
        </mxCell>
        <mxCell id="y9BI83Vpjif7fP8tPJEx-78" value="" style="verticalLabelPosition=bottom;verticalAlign=top;html=1;shape=card;whiteSpace=wrap;size=20;arcSize=12;fontSize=18;fillColor=#FFFFFF;" vertex="1" parent="1">
          <mxGeometry x="-1058" y="1276" width="120" height="70" as="geometry" />
        </mxCell>
        <mxCell id="y9BI83Vpjif7fP8tPJEx-79" value="&lt;font style=&quot;&quot;&gt;&lt;font style=&quot;font-size: 11px;&quot;&gt;Gateway&lt;br&gt;&lt;/font&gt;&lt;font style=&quot;font-size: 11px;&quot;&gt;504 - Timeout&lt;br&gt;&lt;/font&gt;&lt;font style=&quot;font-size: 11px;&quot;&gt;401 - Unauthorized&lt;/font&gt;&lt;br&gt;&lt;/font&gt;" style="text;html=1;strokeColor=none;fillColor=none;align=left;verticalAlign=middle;whiteSpace=wrap;rounded=0;fontSize=18;" vertex="1" parent="1">
          <mxGeometry x="-1043" y="1276" width="115" height="69" as="geometry" />
        </mxCell>
        <mxCell id="y9BI83Vpjif7fP8tPJEx-80" value="Devolve os dados usuário" style="text;html=1;strokeColor=none;fillColor=none;align=center;verticalAlign=middle;whiteSpace=wrap;rounded=0;fontSize=11;" vertex="1" parent="1">
          <mxGeometry x="-706" y="420" width="60" height="50" as="geometry" />
        </mxCell>
        <mxCell id="y9BI83Vpjif7fP8tPJEx-81" value="" style="endArrow=none;dashed=1;html=1;rounded=0;fontSize=11;fillColor=#999999;exitX=0.428;exitY=-0.056;exitDx=0;exitDy=0;exitPerimeter=0;" edge="1" parent="1" source="y9BI83Vpjif7fP8tPJEx-79">
          <mxGeometry width="50" height="50" relative="1" as="geometry">
            <mxPoint x="-1043" y="1236" as="sourcePoint" />
            <mxPoint x="-993" y="1186" as="targetPoint" />
          </mxGeometry>
        </mxCell>
        <mxCell id="y9BI83Vpjif7fP8tPJEx-82" value="" style="strokeWidth=2;html=1;shape=mxgraph.flowchart.start_1;whiteSpace=wrap;fontSize=18;fillColor=#FFFFFF;" vertex="1" parent="1">
          <mxGeometry x="-1195" y="176" width="100" height="60" as="geometry" />
        </mxCell>
        <mxCell id="y9BI83Vpjif7fP8tPJEx-83" value="&lt;font style=&quot;font-size: 14px;&quot;&gt;Requisição&lt;/font&gt;" style="text;html=1;strokeColor=none;fillColor=none;align=center;verticalAlign=middle;whiteSpace=wrap;rounded=0;fontSize=18;" vertex="1" parent="1">
          <mxGeometry x="-1195" y="191" width="100" height="30" as="geometry" />
        </mxCell>
        <mxCell id="y9BI83Vpjif7fP8tPJEx-84" value="&lt;h1&gt;&lt;font style=&quot;font-size: 18px;&quot;&gt;Fluxo de validação de usuário para autenticação&lt;/font&gt;&lt;/h1&gt;" style="text;html=1;strokeColor=none;fillColor=none;spacing=5;spacingTop=-20;whiteSpace=wrap;overflow=hidden;rounded=0;fontSize=14;" vertex="1" parent="1">
          <mxGeometry x="-470" y="620" width="430" height="50" as="geometry" />
        </mxCell>
        <mxCell id="y9BI83Vpjif7fP8tPJEx-86" value="" style="shape=note;whiteSpace=wrap;html=1;backgroundOutline=1;darkOpacity=0.05;fillColor=#FFB570;" vertex="1" parent="1">
          <mxGeometry x="-1406" y="916" width="120" height="120" as="geometry" />
        </mxCell>
        <mxCell id="y9BI83Vpjif7fP8tPJEx-87" value="TRUSTHUB-DADOS&lt;br&gt;-USUARIO-CLIENTE" style="text;html=1;resizable=0;autosize=1;align=center;verticalAlign=middle;points=[];fillColor=none;strokeColor=none;rounded=0;" vertex="1" parent="1">
          <mxGeometry x="-1416" y="956" width="140" height="40" as="geometry" />
        </mxCell>
        <mxCell id="y9BI83Vpjif7fP8tPJEx-88" value="" style="shape=note;whiteSpace=wrap;html=1;backgroundOutline=1;darkOpacity=0.05;fillColor=#FFB570;" vertex="1" parent="1">
          <mxGeometry x="-1406" y="1077" width="120" height="120" as="geometry" />
        </mxCell>
        <mxCell id="y9BI83Vpjif7fP8tPJEx-89" value="TRUSTHUB-&lt;br&gt;AUTENTICACAO" style="text;html=1;resizable=0;autosize=1;align=center;verticalAlign=middle;points=[];fillColor=none;strokeColor=none;rounded=0;" vertex="1" parent="1">
          <mxGeometry x="-1406" y="1127" width="120" height="40" as="geometry" />
        </mxCell>
        <mxCell id="y9BI83Vpjif7fP8tPJEx-33" value="Devolve os dados usuário" style="text;html=1;strokeColor=none;fillColor=none;align=center;verticalAlign=middle;whiteSpace=wrap;rounded=0;fontSize=11;" vertex="1" parent="1">
          <mxGeometry x="-525" y="760" width="60" height="30" as="geometry" />
        </mxCell>
      </root>
    </mxGraphModel>
  </diagram>
</mxfile>
